REM DIRINDEX 1\8,1\2\11,1\3\12,1\3\14,1\5\15,1\5\16,1\6\17,1\6\18,1\4\19,1\4\20,1\4\21,1\4\22,1\7\23,1\7\24,1\7\25,1\2\9\26,1\2\9\27,1\2\10\28,1\2\10\29,1\2\10\30,1\2\10\31,1\2\10\32,1\3\13\33,1\3\13\34,1\3\13\35
REM DIRNAME folder01,folder02,folder03,folder04,folder05,folder06,folder07,folder08,folder09,folder10,folder11,folder12,folder13,folder14,folder15,folder16,folder17,folder18,folder19,folder20,folder21,folder22,folder23,folder24,folder25,folder26,folder27,folder28,folder29,folder30,folder31,folder32,folder33,folder34,folder35
TITLE ""
FILE "131 131_例文UNIT2_SET3.mp3" MP3
  TRACK 01 AUDIO
    TITLE "22:cjc123_3004"
    INDEX 01 00:00:00
  TRACK 02 AUDIO
    TITLE "0:"
    INDEX 01 00:02:43
  TRACK 03 AUDIO
    TITLE "19:cjc123_3005"
    INDEX 01 00:03:17
  TRACK 04 AUDIO
    TITLE "0:"
    INDEX 01 00:07:27
  TRACK 05 AUDIO
    TITLE "20:cjc123_3006"
    INDEX 01 00:07:56
  TRACK 06 AUDIO
    TITLE "0:"
    INDEX 01 00:12:09
  TRACK 07 AUDIO
    TITLE "21:cjc123_3007"
    INDEX 01 00:12:42
  TRACK 08 AUDIO
    TITLE "0:"
    INDEX 01 00:16:53
  TRACK 09 AUDIO
    TITLE "19:cjc123_3008"
    INDEX 01 00:17:31
  TRACK 10 AUDIO
    TITLE "0:"
    INDEX 01 00:21:11
  TRACK 11 AUDIO
    TITLE "20:cjc123_3009"
    INDEX 01 00:21:43
  TRACK 12 AUDIO
    TITLE "0:"
    INDEX 01 00:25:72
  TRACK 13 AUDIO
    TITLE "21:cjc123_3010"
    INDEX 01 00:26:30
  TRACK 14 AUDIO
    TITLE "0:"
    INDEX 01 00:30:12
  TRACK 15 AUDIO
    TITLE "19:cjc123_3011"
    INDEX 01 00:30:65
  TRACK 16 AUDIO
    TITLE "0:"
    INDEX 01 00:35:45
  TRACK 17 AUDIO
    TITLE "20:cjc123_3012"
    INDEX 01 00:36:13
  TRACK 18 AUDIO
    TITLE "0:"
    INDEX 01 00:40:30
  TRACK 19 AUDIO
    TITLE "21:cjc123_3013"
    INDEX 01 00:40:56
  TRACK 20 AUDIO
    TITLE "0:"
    INDEX 01 00:45:35
  TRACK 21 AUDIO
    TITLE "19:cjc123_3014"
    INDEX 01 00:46:19
  TRACK 22 AUDIO
    TITLE "0:"
    INDEX 01 00:49:59
  TRACK 23 AUDIO
    TITLE "20:cjc123_3015"
    INDEX 01 00:50:21
  TRACK 24 AUDIO
    TITLE "0:"
    INDEX 01 00:54:48
  TRACK 25 AUDIO
    TITLE "21:cjc123_3016"
    INDEX 01 00:55:03
  TRACK 26 AUDIO
    TITLE "0:"
    INDEX 01 00:58:42
  TRACK 27 AUDIO
    TITLE "19:cjc123_3017"
    INDEX 01 00:59:22
  TRACK 28 AUDIO
    TITLE "0:"
    INDEX 01 01:03:26
  TRACK 29 AUDIO
    TITLE "20:cjc123_3018"
    INDEX 01 01:03:73
  TRACK 30 AUDIO
    TITLE "0:"
    INDEX 01 01:09:24
  TRACK 31 AUDIO
    TITLE "21:cjc123_3019"
    INDEX 01 01:09:52
  TRACK 32 AUDIO
    TITLE "0:"
    INDEX 01 01:13:57
  TRACK 33 AUDIO
    TITLE "19:cjc123_3020"
    INDEX 01 01:14:45
  TRACK 34 AUDIO
    TITLE "0:"
    INDEX 01 01:19:05
  TRACK 35 AUDIO
    TITLE "20:cjc123_3021"
    INDEX 01 01:19:46
  TRACK 36 AUDIO
    TITLE "0:"
    INDEX 01 01:24:69
  TRACK 37 AUDIO
    TITLE "21:cjc123_3022"
    INDEX 01 01:25:21
  TRACK 38 AUDIO
    TITLE "0:"
    INDEX 01 01:29:60
  TRACK 39 AUDIO
    TITLE "19:cjc123_3023"
    INDEX 01 01:30:38
  TRACK 40 AUDIO
    TITLE "0:"
    INDEX 01 01:34:16
  TRACK 41 AUDIO
    TITLE "20:cjc123_3024"
    INDEX 01 01:34:54
  TRACK 42 AUDIO
    TITLE "0:"
    INDEX 01 01:37:71
  TRACK 43 AUDIO
    TITLE "21:cjc123_3025"
    INDEX 01 01:38:22
  TRACK 44 AUDIO
    TITLE "0:"
    INDEX 01 01:42:00
  TRACK 45 AUDIO
    TITLE "19:cjc123_3026"
    INDEX 01 01:42:53
  TRACK 46 AUDIO
    TITLE "0:"
    INDEX 01 01:45:45
  TRACK 47 AUDIO
    TITLE "20:cjc123_3027"
    INDEX 01 01:45:73
  TRACK 48 AUDIO
    TITLE "0:"
    INDEX 01 01:49:45
  TRACK 49 AUDIO
    TITLE "21:cjc123_3028"
    INDEX 01 01:50:00
  TRACK 50 AUDIO
    TITLE "0:"
    INDEX 01 01:52:63
  TRACK 51 AUDIO
    TITLE "19:cjc123_3029"
    INDEX 01 01:53:31
  TRACK 52 AUDIO
    TITLE "0:"
    INDEX 01 01:57:06
  TRACK 53 AUDIO
    TITLE "20:cjc123_3030"
    INDEX 01 01:57:37
  TRACK 54 AUDIO
    TITLE "0:"
    INDEX 01 02:01:29
  TRACK 55 AUDIO
    TITLE "21:cjc123_3031"
    INDEX 01 02:01:60
  TRACK 56 AUDIO
    TITLE "0:"
    INDEX 01 02:05:34
  TRACK 57 AUDIO
    TITLE "19:cjc123_3032"
    INDEX 01 02:06:10
  TRACK 58 AUDIO
    TITLE "0:"
    INDEX 01 02:08:66
  TRACK 59 AUDIO
    TITLE "20:cjc123_3033"
    INDEX 01 02:09:28
  TRACK 60 AUDIO
    TITLE "0:"
    INDEX 01 02:13:12
  TRACK 61 AUDIO
    TITLE "21:cjc123_3034"
    INDEX 01 02:13:42
  TRACK 62 AUDIO
    TITLE "0:"
    INDEX 01 02:16:23
  TRACK 63 AUDIO
    TITLE "19:cjc123_3035"
    INDEX 01 02:16:70
  TRACK 64 AUDIO
    TITLE "0:"
    INDEX 01 02:20:50
  TRACK 65 AUDIO
    TITLE "20:cjc123_3036"
    INDEX 01 02:21:06
  TRACK 66 AUDIO
    TITLE "0:"
    INDEX 01 02:25:31
  TRACK 67 AUDIO
    TITLE "21:cjc123_3037"
    INDEX 01 02:25:63
  TRACK 68 AUDIO
    TITLE "0:"
    INDEX 01 02:29:41
  TRACK 69 AUDIO
    TITLE "19:cjc123_3038"
    INDEX 01 02:30:13
  TRACK 70 AUDIO
    TITLE "0:"
    INDEX 01 02:33:50
  TRACK 71 AUDIO
    TITLE "20:cjc123_3039"
    INDEX 01 02:34:03
  TRACK 72 AUDIO
    TITLE "0:"
    INDEX 01 02:37:66
  TRACK 73 AUDIO
    TITLE "21:cjc123_3040"
    INDEX 01 02:38:16
  TRACK 74 AUDIO
    TITLE "0:"
    INDEX 01 02:41:54
  TRACK 75 AUDIO
    TITLE "19:cjc123_3041"
    INDEX 01 02:42:26
  TRACK 76 AUDIO
    TITLE "0:"
    INDEX 01 02:46:33
  TRACK 77 AUDIO
    TITLE "20:cjc123_3042"
    INDEX 01 02:46:71
  TRACK 78 AUDIO
    TITLE "0:"
    INDEX 01 02:50:39
  TRACK 79 AUDIO
    TITLE "21:cjc123_3043"
    INDEX 01 02:50:70
  TRACK 80 AUDIO
    TITLE "0:"
    INDEX 01 02:55:03
  TRACK 81 AUDIO
    TITLE "19:cjc123_3044"
    INDEX 01 02:56:02
  TRACK 82 AUDIO
    TITLE "0:"
    INDEX 01 03:00:45
  TRACK 83 AUDIO
    TITLE "20:cjc123_3045"
    INDEX 01 03:00:67
  TRACK 84 AUDIO
    TITLE "0:"
    INDEX 01 03:05:01
  TRACK 85 AUDIO
    TITLE "21:cjc123_3046"
    INDEX 01 03:05:29
  TRACK 86 AUDIO
    TITLE "0:"
    INDEX 01 03:09:72
  TRACK 87 AUDIO
    TITLE "19:cjc123_3047"
    INDEX 01 03:10:46
  TRACK 88 AUDIO
    TITLE "0:"
    INDEX 01 03:14:06
  TRACK 89 AUDIO
    TITLE "20:cjc123_3048"
    INDEX 01 03:14:47
  TRACK 90 AUDIO
    TITLE "0:"
    INDEX 01 03:18:69
  TRACK 91 AUDIO
    TITLE "21:cjc123_3049"
    INDEX 01 03:19:23
  TRACK 92 AUDIO
    TITLE "0:"
    INDEX 01 03:22:61
